<svg data-v-423bf9ae="" xmlns="http://www.w3.org/2000/svg" viewBox="0 0 6130.925772311786 6314" class="iconAbove"><!----><!----><!----><g data-v-423bf9ae="" id="8f03befd-7122-4b07-9861-78d4821e4f82" fill="white" transform="matrix(4.950494706714481,0,0,4.950494706714481,2806.3539018826386,6215.975631969292)"><path d="M0.17 8.43L1.08 8.43L3.35 16.38L3.47 16.38L5.74 8.43L6.65 8.43L4.07 17.18L2.74 17.18L0.17 8.43ZM8.09 17.18L8.09 17.18ZM8.26 10.19L9.17 10.02L9.17 17.18L8.26 17.18L8.26 10.19ZM8.75 8.74L8.75 8.74Q8.36 8.74 8.22 8.61L8.22 8.61L8.22 8.61Q8.09 8.48 8.09 8.12L8.09 8.12L8.09 8.12Q8.09 7.74 8.22 7.61L8.22 7.61L8.22 7.61Q8.36 7.48 8.75 7.48L8.75 7.48L8.75 7.48Q9.11 7.48 9.24 7.61L9.24 7.61L9.24 7.61Q9.37 7.74 9.37 8.12L9.37 8.12L9.37 8.12Q9.37 8.48 9.25 8.61L9.25 8.61L9.25 8.61Q9.13 8.74 8.75 8.74L8.75 8.74ZM11.52 11.96L11.52 11.96Q11.52 10.93 12.12 10.45L12.12 10.45L12.12 10.45Q12.73 9.97 14.00 9.97L14.00 9.97L14.00 9.97Q15.06 9.97 16.09 10.28L16.09 10.28L15.93 10.98L15.93 10.98Q15.57 10.88 15.08 10.81L15.08 10.81L15.08 10.81Q14.59 10.74 14.20 10.74L14.20 10.74L14.20 10.74Q13.31 10.74 12.46 10.86L12.46 10.86L12.46 12.92L12.46 12.92Q14.28 13.19 15.09 13.43L15.09 13.43L15.09 13.43Q15.89 13.66 16.16 14.06L16.16 14.06L16.16 14.06Q16.44 14.46 16.44 15.27L16.44 15.27L16.44 15.27Q16.44 16.06 16.18 16.52L16.18 16.52L16.18 16.52Q15.92 16.98 15.32 17.19L15.32 17.19L15.32 17.19Q14.73 17.39 13.71 17.39L13.71 17.39L13.71 17.39Q12.68 17.39 11.35 17.01L11.35 17.01L11.54 16.20L11.54 16.20Q12.63 16.62 13.85 16.62L13.85 16.62L13.85 16.62Q14.36 16.62 14.70 16.58L14.70 16.58L14.70 16.58Q15.04 16.53 15.51 16.39L15.51 16.39L15.51 14.35L15.51 14.35Q13.54 14.04 12.77 13.82L12.77 13.82L12.77 13.82Q12.00 13.59 11.76 13.22L11.76 13.22L11.76 13.22Q11.52 12.84 11.52 11.96L11.52 11.96ZM18.45 17.18L18.45 17.18ZM18.62 10.19L19.53 10.02L19.53 17.18L18.62 17.18L18.62 10.19ZM19.11 8.74L19.11 8.74Q18.72 8.74 18.59 8.61L18.59 8.61L18.59 8.61Q18.45 8.48 18.45 8.12L18.45 8.12L18.45 8.12Q18.45 7.74 18.59 7.61L18.59 7.61L18.59 7.61Q18.72 7.48 19.11 7.48L19.11 7.48L19.11 7.48Q19.47 7.48 19.60 7.61L19.60 7.61L19.60 7.61Q19.73 7.74 19.73 8.12L19.73 8.12L19.73 8.12Q19.73 8.48 19.61 8.61L19.61 8.61L19.61 8.61Q19.49 8.74 19.11 8.74L19.11 8.74ZM24.77 17.29L24.77 17.29Q23.52 17.29 22.95 17.02L22.95 17.02L22.95 17.02Q22.37 16.74 22.17 16.01L22.17 16.01L22.17 16.01Q21.97 15.27 21.97 13.68L21.97 13.68L21.97 13.68Q21.97 12.08 22.17 11.35L22.17 11.35L22.17 11.35Q22.37 10.61 22.95 10.34L22.95 10.34L22.95 10.34Q23.52 10.07 24.77 10.07L24.77 10.07L24.77 10.07Q26.03 10.07 26.60 10.33L26.60 10.33L26.60 10.33Q27.17 10.60 27.37 11.33L27.37 11.33L27.37 11.33Q27.57 12.07 27.57 13.68L27.57 13.68L27.57 13.68Q27.57 15.27 27.36 16.01L27.36 16.01L27.36 16.01Q27.16 16.74 26.59 17.02L26.59 17.02L26.59 17.02Q26.01 17.29 24.77 17.29L24.77 17.29ZM22.89 16.48L25.96 16.48L25.96 16.48Q26.39 16.48 26.53 16.41L26.53 16.41L26.53 16.41Q26.67 16.35 26.67 16.14L26.67 16.14L26.67 10.88L23.60 10.88L23.60 10.88Q23.17 10.88 23.03 10.94L23.03 10.94L23.03 10.94Q22.89 11.00 22.89 11.21L22.89 11.21L22.89 16.48ZM30.02 17.18L30.02 10.18L30.39 10.18L30.66 10.88L30.66 10.88Q31.16 10.46 31.76 10.26L31.76 10.26L31.76 10.26Q32.35 10.07 33.19 10.07L33.19 10.07L33.19 10.07Q35.14 10.07 35.14 11.10L35.14 11.10L35.14 17.18L34.23 17.18L34.23 10.81L32.34 10.81L32.34 10.81Q31.77 10.81 31.47 10.89L31.47 10.89L31.47 10.89Q31.18 10.98 31.05 11.17L31.05 11.17L31.05 11.17Q30.93 11.37 30.93 11.76L30.93 11.76L30.93 17.18L30.02 17.18ZM42.64 14.03L42.64 17.18L41.73 17.18L41.73 8.43L44.97 8.43L44.97 8.43Q45.81 8.43 46.26 8.69L46.26 8.69L46.26 8.69Q46.72 8.95 46.91 9.55L46.91 9.55L46.91 9.55Q47.10 10.16 47.10 11.28L47.10 11.28L47.10 11.28Q47.10 12.31 46.91 12.90L46.91 12.90L46.91 12.90Q46.73 13.50 46.31 13.76L46.31 13.76L46.31 13.76Q45.89 14.03 45.18 14.03L45.18 14.03L42.64 14.03ZM42.64 13.24L45.04 13.24L45.04 13.24Q45.67 13.24 45.91 13.12L45.91 13.12L45.91 13.12Q46.14 12.99 46.14 12.66L46.14 12.66L46.14 9.77L46.14 9.77Q46.14 9.44 45.91 9.31L45.91 9.31L45.91 9.31Q45.67 9.18 45.04 9.18L45.04 9.18L42.64 9.18L42.64 13.24ZM49.67 16.48L49.67 16.48Q50.04 16.52 50.30 16.53L50.30 16.53L50.23 17.16L50.23 17.16Q49.84 17.29 49.53 17.29L49.53 17.29L49.53 17.29Q48.76 17.29 48.76 16.41L48.76 16.41L48.76 8.08L49.67 7.87L49.67 16.48ZM54.81 10.07L54.81 10.07Q55.72 10.07 56.22 10.23L56.22 10.23L56.22 10.23Q56.73 10.40 56.94 10.78L56.94 10.78L56.94 10.78Q57.15 11.16 57.15 11.84L57.15 11.84L57.15 17.18L56.77 17.18L56.50 16.48L56.50 16.48Q56.01 16.90 55.41 17.09L55.41 17.09L55.41 17.09Q54.80 17.29 53.96 17.29L53.96 17.29L53.96 17.29Q52.84 17.29 52.38 16.84L52.38 16.84L52.38 16.84Q51.93 16.39 51.93 15.29L51.93 15.29L51.93 15.29Q51.93 14.21 52.18 13.78L52.18 13.78L52.18 13.78Q52.43 13.36 53.24 13.22L53.24 13.22L53.24 13.22Q54.05 13.09 56.11 13.09L56.11 13.09L56.25 13.09L56.25 11.03L56.25 11.03Q55.61 10.84 54.59 10.84L54.59 10.84L54.59 10.84Q53.49 10.84 52.36 11.17L52.36 11.17L52.23 10.46L52.23 10.46Q52.64 10.29 53.39 10.18L53.39 10.18L53.39 10.18Q54.14 10.07 54.81 10.07L54.81 10.07ZM55.08 16.51L55.08 16.51Q55.76 16.51 56.01 16.32L56.01 16.32L56.01 16.32Q56.25 16.13 56.25 15.60L56.25 15.60L56.25 13.83L53.94 13.83L53.94 13.83Q53.24 13.83 52.99 14.02L52.99 14.02L52.99 14.02Q52.74 14.21 52.74 14.73L52.74 14.73L52.74 16.51L55.08 16.51ZM63.48 10.18L64.39 10.18L62.22 16.86L62.22 16.86Q61.87 17.92 61.52 18.51L61.52 18.51L61.52 18.51Q61.17 19.10 60.72 19.35L60.72 19.35L60.72 19.35Q60.27 19.60 59.61 19.60L59.61 19.60L59.61 19.60Q59.00 19.60 58.56 19.47L58.56 19.47L58.59 18.98L59.30 18.89L59.30 18.89Q59.91 18.80 60.23 18.66L60.23 18.66L60.23 18.66Q60.55 18.52 60.75 18.23L60.75 18.23L60.75 18.23Q60.96 17.93 61.14 17.37L61.14 17.37L61.31 16.86L60.82 16.86L58.65 10.18L59.56 10.18L61.45 16.11L61.59 16.11L63.48 10.18ZM69.48 17.18L70.08 8.43L71.47 8.43L73.71 15.72L73.81 15.72L76.06 8.43L77.43 8.43L78.04 17.18L77.14 17.18L76.62 9.34L76.54 9.34L74.16 17.18L73.37 17.18L70.99 9.34L70.91 9.34L70.38 17.18L69.48 17.18ZM82.87 16.52L82.87 16.52Q83.43 16.52 83.96 16.45L83.96 16.45L83.96 16.45Q84.49 16.38 85.27 16.18L85.27 16.18L85.40 16.90L85.40 16.90Q84.95 17.08 84.20 17.19L84.20 17.19L84.20 17.19Q83.44 17.29 82.63 17.29L82.63 17.29L82.63 17.29Q81.59 17.29 81.10 17.00L81.10 17.00L81.10 17.00Q80.61 16.72 80.44 15.97L80.44 15.97L80.44 15.97Q80.26 15.23 80.26 13.68L80.26 13.68L80.26 13.68Q80.26 12.21 80.49 11.45L80.49 11.45L80.49 11.45Q80.71 10.70 81.28 10.38L81.28 10.38L81.28 10.38Q81.84 10.07 82.95 10.07L82.95 10.07L82.95 10.07Q84.03 10.07 84.58 10.23L84.58 10.23L84.58 10.23Q85.13 10.40 85.36 10.82L85.36 10.82L85.36 10.82Q85.58 11.24 85.58 12.07L85.58 12.07L85.58 12.07Q85.58 13.15 85.32 13.57L85.32 13.57L85.32 13.57Q85.05 14 84.20 14.13L84.20 14.13L84.20 14.13Q83.36 14.27 81.20 14.27L81.20 14.27L81.20 16.32L81.20 16.32Q81.84 16.52 82.87 16.52L82.87 16.52ZM82.42 10.91L82.42 10.91Q81.70 10.91 81.45 11.10L81.45 11.10L81.45 11.10Q81.20 11.28 81.20 11.82L81.20 11.82L81.20 13.52L83.51 13.52L83.51 13.52Q84.24 13.52 84.50 13.34L84.50 13.34L84.50 13.34Q84.76 13.16 84.76 12.63L84.76 12.63L84.76 10.91L82.42 10.91ZM92.19 7.80L93.10 7.64L93.10 17.18L92.72 17.18L92.48 16.65L92.48 16.65Q92.25 17.08 91.74 17.23L91.74 17.23L91.74 17.23Q91.24 17.39 90.26 17.39L90.26 17.39L90.26 17.39Q89.10 17.39 88.58 17.13L88.58 17.13L88.58 17.13Q88.06 16.87 87.88 16.12L87.88 16.12L87.88 16.12Q87.70 15.37 87.70 13.68L87.70 13.68L87.70 13.68Q87.70 12.12 87.86 11.38L87.86 11.38L87.86 11.38Q88.03 10.64 88.49 10.35L88.49 10.35L88.49 10.35Q88.96 10.07 89.92 10.07L89.92 10.07L89.92 10.07Q90.86 10.07 91.38 10.14L91.38 10.14L91.38 10.14Q91.90 10.22 92.19 10.46L92.19 10.46L92.19 7.80ZM92.19 16.24L92.19 10.88L89.31 10.88L89.31 10.88Q88.90 10.88 88.77 10.94L88.77 10.94L88.77 10.94Q88.63 11.00 88.63 11.21L88.63 11.21L88.63 16.58L91.50 16.58L91.50 16.58Q91.92 16.58 92.06 16.51L92.06 16.51L92.06 16.51Q92.19 16.45 92.19 16.24L92.19 16.24ZM95.84 17.18L95.84 17.18ZM96.01 10.19L96.92 10.02L96.92 17.18L96.01 17.18L96.01 10.19ZM96.50 8.74L96.50 8.74Q96.11 8.74 95.98 8.61L95.98 8.61L95.98 8.61Q95.84 8.48 95.84 8.12L95.84 8.12L95.84 8.12Q95.84 7.74 95.98 7.61L95.98 7.61L95.98 7.61Q96.11 7.48 96.50 7.48L96.50 7.48L96.50 7.48Q96.87 7.48 96.99 7.61L96.99 7.61L96.99 7.61Q97.12 7.74 97.12 8.12L97.12 8.12L97.12 8.12Q97.12 8.48 97.00 8.61L97.00 8.61L97.00 8.61Q96.88 8.74 96.50 8.74L96.50 8.74ZM102.17 10.07L102.17 10.07Q103.08 10.07 103.59 10.23L103.59 10.23L103.59 10.23Q104.09 10.40 104.30 10.78L104.30 10.78L104.30 10.78Q104.51 11.16 104.51 11.84L104.51 11.84L104.51 17.18L104.13 17.18L103.87 16.48L103.87 16.48Q103.38 16.90 102.77 17.09L102.77 17.09L102.77 17.09Q102.16 17.29 101.32 17.29L101.32 17.29L101.32 17.29Q100.20 17.29 99.74 16.84L99.74 16.84L99.74 16.84Q99.29 16.39 99.29 15.29L99.29 15.29L99.29 15.29Q99.29 14.21 99.54 13.78L99.54 13.78L99.54 13.78Q99.79 13.36 100.60 13.22L100.60 13.22L100.60 13.22Q101.42 13.09 103.47 13.09L103.47 13.09L103.61 13.09L103.61 11.03L103.61 11.03Q102.97 10.84 101.95 10.84L101.95 10.84L101.95 10.84Q100.86 10.84 99.72 11.17L99.72 11.17L99.60 10.46L99.60 10.46Q100.00 10.29 100.75 10.18L100.75 10.18L100.75 10.18Q101.50 10.07 102.17 10.07L102.17 10.07ZM102.44 16.51L102.44 16.51Q103.12 16.51 103.37 16.32L103.37 16.32L103.37 16.32Q103.61 16.13 103.61 15.60L103.61 15.60L103.61 13.83L101.30 13.83L101.30 13.83Q100.60 13.83 100.35 14.02L100.35 14.02L100.35 14.02Q100.10 14.21 100.10 14.73L100.10 14.73L100.10 16.51L102.44 16.51Z"></path></g><!----><g data-v-423bf9ae="" id="29345e4b-a9d2-479a-b602-2a779959ead9" transform="matrix(8.32666761610243,0,0,8.32666761610243,-1098.5827776150254,-1043.0340387132792)" stroke="none" fill="white"><path d="M661.8 226L637 215.3c-12.6-5.4-27.4.4-32.8 13L567.3 314 269.8 185.9c-4.2-34.1-33.4-60.6-68.6-60.6-38.1 0-69.2 31-69.2 69.1 0 38.1 31 69.2 69.2 69.2 12.3 0 23.9-3.2 33.9-8.9l322.4 138.9 27.1 11.7c10.8 4.7 23.3 1 30-8.2 1.1-1.5 2-3.1 2.7-4.8l11.1-25.7.2-.4 46.3-107.5c5.4-12.5-.5-27.2-13.1-32.7zm-460.6 5.9c-2.4 0-4.7-.2-7-.7-17.3-3.3-30.4-18.5-30.4-36.8 0-20.6 16.8-37.4 37.4-37.4 11.2 0 21.2 4.9 28 12.7 5.8 6.6 9.4 15.3 9.4 24.8 0 20.6-16.8 37.4-37.4 37.4z"></path><path d="M628.3 366.7c-.1.3-.2.5-.3.8l-10.7 24.8s0 .1-.1.1l11.1-25.7zM545.3 279.8L387.9 212c-6.1-2.6-8.9-9.7-6.3-15.8l21-48.7c2.6-6.1 9.7-8.9 15.8-6.3L575.8 209c6.1 2.6 8.9 9.7 6.3 15.8l-21 48.7c-2.6 6.1-9.7 8.9-15.8 6.3zM614.5 397.2c-6.7 9.2-19.2 12.9-30.1 8.3l-24.8-10.7c-.7-.3-1.5-.7-2.2-1.1l27.1 11.7c10.9 4.6 23.3 1 30-8.2zM630.3 632.5l-24.9-10.6s-.1 0-.1-.1l25 10.7zM717.5 549.4l67.1-157.7c2.6-6.1 9.7-8.9 15.7-6.3l48.7 20.7c6.1 2.6 8.9 9.7 6.3 15.7l-67.1 157.7c-2.6 6.1-9.7 8.9-15.7 6.3l-48.7-20.7c-6-2.6-8.9-9.7-6.3-15.7zM597 616.1l.2.2c0-.1-.1-.1-.2-.2.1 0 .1 0 0 0zM597.2 616.2c.3.3.5.6.8.8-.3-.2-.5-.5-.8-.8zM596.1 615c.3.4.6.7.9 1-6.7-7-9-17.6-5-27l10.6-24.9c.3-.7.7-1.4 1.1-2.1l-11.5 27.1c-1.5 3.6-2.2 7.4-2 11.1 0 .3 0 .5.1.7 0 .3 0 .5.1.8v.1c.1.4.1.9.2 1.3s.1.8.2 1.2c0 .2.1.4.2.6.1.4.2.7.3 1 .1.4.2.8.4 1.2 0 .2.1.3.2.5.1.4.3.8.5 1.1.2.4.3.7.5 1.1.1.2.2.5.4.7 0 .1.1.2.1.3.2.3.3.6.5.8.1.3.3.5.5.7.2.3.4.7.7 1 .2.2.3.5.5.7 0 .4.2.7.5 1zM599.3 618.2c-.4-.4-.8-.7-1.2-1.1.3.3.7.7 1.2 1.1zM375.8 610.9L365 636.6c.1-.2.2-.5.3-.7l10.5-24.9v-.1zM448.8 722.8l158 66.4c6.1 2.6 9 9.6 6.4 15.7l-20.5 48.8c-2.6 6.1-9.6 9-15.7 6.4l-158-66.4c-6.1-2.6-9-9.6-6.4-15.7l20.5-48.8c2.5-6.1 9.6-9 15.7-6.4zM435.5 609l-27.1-11.4c-9.7-4-20.6-1.5-27.5 5.6 6.9-7.2 17.9-9.8 27.6-5.7l24.9 10.5c.8.3 1.5.6 2.1 1zM385.7 381.4l-26-10.8c.3.1.6.2.9.4l25 10.4c.1-.1.1-.1.1 0zM274.1 454.8l-65.7 158.3c-2.5 6.1-9.6 9-15.7 6.5l-48.9-20.3c-6.1-2.5-9-9.6-6.5-15.7L203 425.4c2.5-6.1 9.6-9 15.7-6.5l48.9 20.3c6.2 2.5 9.1 9.5 6.5 15.6z"></path><path d="M798.8 133c-38.1 0-69.2 31-69.2 69.1 0 13.9 4.1 26.8 11.2 37.6L603.7 562l-11.5 27.1c-1.5 3.6-2.2 7.4-2 11.1 0 .2 0 .5.1.7 0 .3 0 .5.1.8v.1c.1.4.1.9.2 1.3s.1.8.2 1.2c0 .2.1.4.2.6.1.4.2.7.3 1 .1.4.2.8.4 1.2 0 .2.1.3.2.5.1.4.3.8.5 1.1.2.4.3.7.5 1.1.1.2.2.5.4.7 0 .1.1.2.1.3.2.3.3.6.5.8.1.3.3.5.5.7.2.3.4.7.7 1 .2.2.3.5.5.7.3.3.5.6.8 1 .2.2.3.4.5.6l.2.2.2.2.1.1c.7.7 1.4 1.4 2.2 2l1.2.9c1.5 1.1 3.1 2 4.8 2.7l25 10.7 1.2.5 107.7 45.8c12.6 5.4 27.4-.6 32.7-13.2l10.6-24.9c5.4-12.6-.6-27.3-13.2-32.7l-85.9-36.5 128.2-301.3c32.1-6 56.4-34.2 56.4-68C868 164 837 133 798.8 133zm27.3 94.7c-6.8 7.3-16.5 11.8-27.3 11.8-20.6 0-37.4-16.8-37.4-37.4 0-.7 0-1.5.1-2.2 1.1-19.6 17.4-35.2 37.4-35.2 20.6 0 37.4 16.8 37.4 37.4 0 9.9-3.9 18.9-10.2 25.6zM392.1 385.2c-1.9-1.6-4-2.9-6.3-3.8l-26-10.8-.3-.1-108.1-44.8c-12.7-5.3-27.4.8-32.6 13.5l-10.4 25c-5.3 12.7.8 27.4 13.5 32.6l86.2 35.8-126.4 304.6c-28.7 8.4-49.7 35-49.7 66.4 0 38.1 31 69.2 69.2 69.2 38.1 0 69.2-31 69.2-69.2 0-16.2-5.6-31.1-15-42.9l132.5-319.5c.4-.7.7-1.4 1-2.1l10.4-25c4.2-10.4 1-22.1-7.2-28.9zM201.2 841c-20.6 0-37.4-16.8-37.4-37.4 0-7.6 2.3-14.6 6.1-20.5 6.7-10.2 18.2-16.9 31.3-16.9 19.3 0 35.2 14.7 37.2 33.5.1 1.3.2 2.6.2 3.9 0 20.6-16.8 37.4-37.4 37.4zM795 736.3c-12.5 0-24.3 3.4-34.5 9.2L435.5 609l-27.1-11.4c-9.7-4-20.6-1.5-27.5 5.6-2.1 2.2-3.9 4.7-5.1 7.7L365 636.6 319.5 745c-5.3 12.7.7 27.4 13.3 32.7l24.9 10.5c12.7 5.3 27.4-.7 32.7-13.3l36.2-86.1 299.9 126c4.5 33.8 33.5 59.9 68.5 59.9 38.1 0 69.2-31 69.2-69.2 0-38.1-31-69.2-69.2-69.2zm0 106.6c-11.3 0-21.4-5-28.2-12.9-5.7-6.6-9.2-15.2-9.2-24.5 0-20.6 16.8-37.4 37.4-37.4 1.9 0 3.7.1 5.6.4 18 2.7 31.9 18.3 31.9 37 0 20.6-16.8 37.4-37.5 37.4z"></path></g><!----></svg>