<?xml version="1.0" standalone="no"?>
<!DOCTYPE svg PUBLIC "-//W3C//DTD SVG 20010904//EN"
 "http://www.w3.org/TR/2001/REC-SVG-20010904/DTD/svg10.dtd">
<svg version="1.0" xmlns="http://www.w3.org/2000/svg"
 width="1000.000000pt" height="1000.000000pt" viewBox="0 0 1000.000000 1000.000000"
 preserveAspectRatio="xMidYMid meet">
<metadata>
Created by potrace 1.16, written by Peter Selinger 2001-2019
</metadata>
<g transform="translate(0.000000,1000.000000) scale(0.100000,-0.100000)"
fill="#000000" stroke="none">
<path d="M4840 8657 c-25 -7 -75 -29 -110 -49 -317 -178 -2865 -1650 -2865
-1656 0 -4 -22 -27 -49 -52 -54 -49 -99 -133 -116 -214 -7 -35 -10 -583 -8
-1721 l3 -1670 24 -59 c15 -38 41 -76 70 -105 33 -32 446 -277 1496 -889 798
-464 1479 -858 1515 -875 82 -39 204 -49 294 -23 36 11 240 123 559 308 276
160 527 306 557 323 91 52 368 212 895 518 275 160 543 315 595 345 52 30 133
77 180 105 47 27 125 72 175 100 139 79 208 159 239 282 14 52 16 246 16 1675
0 1052 -4 1630 -11 1659 -28 123 -120 237 -236 292 -38 18 -702 399 -1478 847
-775 449 -1434 826 -1464 840 -66 30 -208 40 -281 19z m1138 -1477 c782 -452
1009 -587 1000 -596 -21 -18 -2020 -1169 -2027 -1166 -18 8 -2002 1155 -2015
1165 -13 10 157 112 1002 599 559 324 1020 587 1023 585 3 -1 461 -265 1017
-587z m1515 -3511 c-5 -4 -123 -69 -263 -144 -140 -76 -277 -150 -305 -165
-170 -93 -1618 -872 -1630 -877 -13 -4 -15 135 -15 1103 l0 1109 1108 597
1107 597 3 -1106 c1 -609 -1 -1110 -5 -1114z m-4011 1617 l983 -594 3 -1106
c1 -608 1 -1106 -1 -1106 -2 0 -447 269 -988 598 l-984 599 -3 1101 c-1 606 0
1102 2 1102 2 0 447 -267 988 -594z"/>
</g>
</svg>
